REM DIRINDEX 1\2,1\3
REM DIRNAME cjc133,folder01,folder02
TITLE ""
FILE "DISC1Track07.mp3" MP3
  TRACK 01 AUDIO
    TITLE "0:"
    INDEX 01 00:00:00
  TRACK 02 AUDIO
    TITLE "3:cjc133_0278"
    INDEX 01 00:00:13
  TRACK 03 AUDIO
    TITLE "0:"
    INDEX 01 00:01:01
  TRACK 04 AUDIO
    TITLE "2:cjc133_0279"
    INDEX 01 00:01:50
  TRACK 05 AUDIO
    TITLE "2:cjc133_0280"
    INDEX 01 00:04:42
  TRACK 06 AUDIO
    TITLE "2:cjc133_0281"
    INDEX 01 00:07:60
  TRACK 07 AUDIO
    TITLE "0:"
    INDEX 01 00:10:19
  TRACK 08 AUDIO
    TITLE "2:cjc133_0282"
    INDEX 01 00:10:72
  TRACK 09 AUDIO
    TITLE "2:cjc133_0283"
    INDEX 01 00:12:14
  TRACK 10 AUDIO
    TITLE "2:cjc133_0284"
    INDEX 01 00:15:27
  TRACK 11 AUDIO
    TITLE "0:"
    INDEX 01 00:17:53
  TRACK 12 AUDIO
    TITLE "2:cjc133_0285"
    INDEX 01 00:18:29
  TRACK 13 AUDIO
    TITLE "2:cjc133_0286"
    INDEX 01 00:19:50
  TRACK 14 AUDIO
    TITLE "2:cjc133_0287"
    INDEX 01 00:22:64
  TRACK 15 AUDIO
    TITLE "0:"
    INDEX 01 00:25:17
  TRACK 16 AUDIO
    TITLE "2:cjc133_0288"
    INDEX 01 00:25:68
  TRACK 17 AUDIO
    TITLE "2:cjc133_0289"
    INDEX 01 00:28:13
  TRACK 18 AUDIO
    TITLE "2:cjc133_0290"
    INDEX 01 00:31:47
  TRACK 19 AUDIO
    TITLE "0:"
    INDEX 01 00:34:08
  TRACK 20 AUDIO
    TITLE "2:cjc133_0291"
    INDEX 01 00:34:59
  TRACK 21 AUDIO
    TITLE "2:cjc133_0292"
    INDEX 01 00:36:50
  TRACK 22 AUDIO
    TITLE "2:cjc133_0293"
    INDEX 01 00:40:28
  TRACK 23 AUDIO
    TITLE "0:"
    INDEX 01 00:43:17
  TRACK 24 AUDIO
    TITLE "2:cjc133_0294"
    INDEX 01 00:43:66
  TRACK 25 AUDIO
    TITLE "2:cjc133_0295"
    INDEX 01 00:46:07
  TRACK 26 AUDIO
    TITLE "2:cjc133_0296"
    INDEX 01 00:49:27
  TRACK 27 AUDIO
    TITLE "0:"
    INDEX 01 00:51:56
  TRACK 28 AUDIO
    TITLE "2:cjc133_0297"
    INDEX 01 00:52:36
  TRACK 29 AUDIO
    TITLE "2:cjc133_0298"
    INDEX 01 00:54:34
  TRACK 30 AUDIO
    TITLE "2:cjc133_0299"
    INDEX 01 00:57:68
  TRACK 31 AUDIO
    TITLE "0:"
    INDEX 01 01:00:41
  TRACK 32 AUDIO
    TITLE "2:cjc133_0300"
    INDEX 01 01:01:19
  TRACK 33 AUDIO
    TITLE "2:cjc133_0301"
    INDEX 01 01:03:08
  TRACK 34 AUDIO
    TITLE "2:cjc133_0302"
    INDEX 01 01:06:57
  TRACK 35 AUDIO
    TITLE "0:"
    INDEX 01 01:09:40
  TRACK 36 AUDIO
    TITLE "2:cjc133_0303"
    INDEX 01 01:10:16
  TRACK 37 AUDIO
    TITLE "2:cjc133_0304"
    INDEX 01 01:12:50
  TRACK 38 AUDIO
    TITLE "2:cjc133_0305"
    INDEX 01 01:16:01
  TRACK 39 AUDIO
    TITLE "0:"
    INDEX 01 01:18:29
  TRACK 40 AUDIO
    TITLE "2:cjc133_0306"
    INDEX 01 01:19:05
  TRACK 41 AUDIO
    TITLE "2:cjc133_0307"
    INDEX 01 01:21:41
  TRACK 42 AUDIO
    TITLE "2:cjc133_0308"
    INDEX 01 01:25:09
  TRACK 43 AUDIO
    TITLE "0:"
    INDEX 01 01:27:53
  TRACK 44 AUDIO
    TITLE "2:cjc133_0309"
    INDEX 01 01:28:31
  TRACK 45 AUDIO
    TITLE "2:cjc133_0310"
    INDEX 01 01:31:26
  TRACK 46 AUDIO
    TITLE "2:cjc133_0311"
    INDEX 01 01:34:55
  TRACK 47 AUDIO
    TITLE "0:"
    INDEX 01 01:37:11
  TRACK 48 AUDIO
    TITLE "2:cjc133_0312"
    INDEX 01 01:37:66
  TRACK 49 AUDIO
    TITLE "2:cjc133_0313"
    INDEX 01 01:38:67
  TRACK 50 AUDIO
    TITLE "2:cjc133_0314"
    INDEX 01 01:42:24
  TRACK 51 AUDIO
    TITLE "0:"
    INDEX 01 01:44:58
  TRACK 52 AUDIO
    TITLE "2:cjc133_0315"
    INDEX 01 01:45:36
  TRACK 53 AUDIO
    TITLE "2:cjc133_0316"
    INDEX 01 01:46:68
  TRACK 54 AUDIO
    TITLE "2:cjc133_0317"
    INDEX 01 01:49:59
  TRACK 55 AUDIO
    TITLE "0:"
    INDEX 01 01:51:56
  TRACK 56 AUDIO
    TITLE "2:cjc133_0318"
    INDEX 01 01:52:28
  TRACK 57 AUDIO
    TITLE "2:cjc133_0319"
    INDEX 01 01:54:23
  TRACK 58 AUDIO
    TITLE "2:cjc133_0320"
    INDEX 01 01:57:47
  TRACK 59 AUDIO
    TITLE "0:"
    INDEX 01 02:00:02
  TRACK 60 AUDIO
    TITLE "2:cjc133_0321"
    INDEX 01 02:00:53
  TRACK 61 AUDIO
    TITLE "2:cjc133_0322"
    INDEX 01 02:03:16
  TRACK 62 AUDIO
    TITLE "2:cjc133_0323"
    INDEX 01 02:06:34
  TRACK 63 AUDIO
    TITLE "0:"
    INDEX 01 02:08:62
